<svg width="99" height="59" viewBox="0 0 99 59" fill="none" xmlns="http://www.w3.org/2000/svg">
<path d="M92.2501 0H6.74991C4.95999 0 3.24304 0.711151 1.97753 1.97753C0.71117 3.24314 0 4.96003 0 6.74991V51.7506C0 53.5405 0.711151 55.2575 1.97753 56.523C3.24314 57.7894 4.96003 58.5005 6.74991 58.5005H92.2501C94.04 58.5005 95.757 57.7894 97.0225 56.523C98.2888 55.2574 99 53.5405 99 51.7506V6.74991C99 4.95999 98.2889 3.24304 97.0225 1.97753C95.7569 0.71117 94.04 0 92.2501 0ZM94.5003 51.7487L94.4996 51.7494C94.4996 52.3461 94.263 52.9179 93.8411 53.3405C93.4185 53.7624 92.8467 53.9989 92.2501 53.9989H6.74991C5.50766 53.9989 4.50045 52.9917 4.50045 51.7495V6.74876C4.50045 5.5065 5.50768 4.4993 6.74991 4.4993H92.2501C92.8467 4.4993 93.4185 4.73586 93.8411 5.15773C94.263 5.58035 94.4996 6.15212 94.4996 6.74878L94.5003 51.7487Z" fill="#2E72BB"/>
<path d="M87.7488 15.7505C86.5555 15.7505 85.4112 15.2767 84.5674 14.4322C83.7229 13.5884 83.2491 12.444 83.2491 11.2508C83.2491 10.6542 83.0118 10.0817 82.5899 9.65979C82.168 9.23792 81.5955 9.00061 80.9989 9.00061H18.001C16.758 9.00061 15.7507 10.0078 15.7507 11.2508C15.7507 12.4441 15.2769 13.5884 14.4324 14.4322C13.5887 15.2767 12.4443 15.7505 11.2511 15.7505C10.0081 15.7505 9.00085 16.7577 9.00085 18.0007V40.4992C9.00085 41.0958 9.23816 41.6683 9.66003 42.0902C10.0819 42.5121 10.6544 42.7494 11.2511 42.7494C12.4444 42.7494 13.5887 43.2232 14.4324 44.0677C15.2769 44.9115 15.7507 46.0559 15.7507 47.2491C15.7507 47.8457 15.9881 48.4182 16.4099 48.8401C16.8318 49.262 17.4043 49.4993 18.001 49.4993H80.9989C81.5955 49.4993 82.168 49.262 82.5899 48.8401C83.0118 48.4182 83.2491 47.8457 83.2491 47.2491C83.2491 46.0558 83.7229 44.9115 84.5674 44.0677C85.4112 43.2232 86.5556 42.7494 87.7488 42.7494C88.3454 42.7494 88.9179 42.5121 89.3398 42.0902C89.7617 41.6683 89.999 41.0958 89.999 40.4992V18.0007C89.999 17.4041 89.7617 16.8315 89.3398 16.4097C88.9179 15.9878 88.3454 15.7505 87.7488 15.7505ZM85.4993 38.5363C83.9437 38.9408 82.5243 39.7537 81.3876 40.8897C80.2509 42.0265 79.4381 43.445 79.0327 45.0006H19.9671C19.5618 43.4449 18.749 42.0264 17.6122 40.8897C16.4754 39.7537 15.0561 38.9409 13.5005 38.5363V19.965C15.0561 19.5604 16.4755 18.7476 17.6122 17.6115C18.7489 16.4748 19.5617 15.0562 19.9671 13.5007H79.0327C79.438 15.0563 80.2508 16.4749 81.3876 17.6115C82.5244 18.7476 83.9437 19.5603 85.4993 19.965V38.5363Z" fill="#2E72BB"/>
<path d="M52.875 26.9996H51.7502V24.7501H54.0005H53.9997C55.2427 24.7501 56.2499 23.7422 56.2499 22.4999C56.2499 21.2577 55.2427 20.2497 53.9997 20.2497H51.7503V18.0002C51.7503 16.7572 50.7423 15.75 49.5 15.75C48.2578 15.75 47.2498 16.7572 47.2498 18.0002V20.2505H46.1251V20.2497C44.1151 20.2497 42.2581 21.3217 41.254 23.0627C40.249 24.8029 40.249 26.947 41.254 28.6871C42.2581 30.428 44.1151 31.5001 46.1251 31.5001H47.2498V33.7503L45.0003 33.7495C43.7573 33.7495 42.7501 34.7575 42.7501 35.9998C42.7501 37.242 43.7573 38.25 45.0003 38.25H47.2506V40.5002L47.2498 40.4995C47.2498 41.7425 48.2578 42.7497 49.5 42.7497C50.7423 42.7497 51.7503 41.7425 51.7503 40.4995V38.25H52.875C54.8849 38.25 56.7419 37.178 57.7461 35.437C58.7511 33.6968 58.7511 31.5528 57.7461 29.8126C56.7419 28.0717 54.8849 26.9996 52.875 26.9996ZM46.1251 26.9996C45.5035 26.9996 45.0003 26.4964 45.0003 25.8749C45.0003 25.2534 45.5036 24.7501 46.1251 24.7501H47.2498V27.0004L46.1251 26.9996ZM52.875 33.7495H51.7502V31.5H52.875C53.4965 31.5 53.9997 32.0033 53.9997 32.6248C53.9997 33.2463 53.4965 33.7495 52.875 33.7495Z" fill="#2E72BB"/>
</svg>
