<svg width="74" height="71" viewBox="0 0 74 71" fill="none" xmlns="http://www.w3.org/2000/svg">
<path d="M5.64996 0C2.5498 0.290945 0.0603663 2.75868 0 5.75492C0.677499 26.0617 7.10641 42.4132 18.7886 53.6095C30.4716 64.8045 47.2419 70.6743 68.0608 70.6382C71.477 70.6535 73.8316 67.7669 73.895 64.8569C73.9296 60.0586 73.9666 55.2487 74 50.4563C74 47.1081 70.9656 44.9354 68.1658 44.9113C63.8538 44.9284 57.8413 43.361 52.9766 42.1521C52.146 41.9515 51.2198 42.2084 50.6115 42.809L42.5964 50.5877C32.9407 44.7894 28.5185 40.5174 22.5719 31.1684L30.5341 23.469C31.1788 22.8466 31.4504 21.864 31.2175 20.9989C29.9065 16.0909 27.7449 9.696 28.0905 5.20457C27.7491 1.69852 24.4219 -0.0171186 21.7835 0.00165205H5.64831L5.64996 0ZM5.67635 5.04584H21.8912C22.7059 5.06109 22.7059 5.0611 23.1001 5.80781C22.9505 11.2208 24.7267 16.6889 25.9379 20.8919L17.5816 29.0383C16.7674 29.829 16.5949 31.1976 17.1874 32.1654C24.3753 43.8167 29.7062 48.9869 41.6793 55.974C42.6213 56.5213 43.9182 56.3635 44.7014 55.6062L53.137 47.3813C57.7124 48.5374 63.2015 49.9763 68.1941 49.9563C68.556 50.0243 68.9126 50.537 68.956 50.5869L68.851 64.8303C68.6756 65.2409 68.956 65.6081 67.9049 65.5923C48.1116 65.5923 32.8383 60.0685 22.2848 49.9571C11.7028 39.8175 5.69152 24.9156 5.04581 5.57283C5.04581 5.06251 5.04581 5.06251 5.67638 5.04726L5.67635 5.04584Z" fill="#2E72BB"/>
</svg>
