<svg width="66" height="75" viewBox="0 0 66 75" fill="none" xmlns="http://www.w3.org/2000/svg">
<path d="M1.53339 0.00309717C0.661024 0.0857295 -0.00421075 0.825251 2.00677e-05 1.70743V73.2957C2.00677e-05 74.2373 0.757289 75 1.69219 75H50.7696C51.704 75 52.4618 74.2373 52.4618 73.2957V51.9364L65.4977 38.8062C65.8194 38.4864 66 38.0501 66 37.5947C66 37.1393 65.8194 36.703 65.4977 36.3826L58.6226 29.4581C58.2597 29.0979 57.7544 28.9219 57.248 28.979C56.869 29.02 56.5149 29.1894 56.2428 29.4581L52.4618 33.2669V1.70656C52.4618 0.764909 51.704 0.00222926 50.7696 0.00222926H1.69219C1.63907 -0.000743086 1.58654 -0.000743086 1.53342 0.00222926L1.53339 0.00309717ZM3.38437 3.41176H49.0772V36.675L28.5849 57.3145C28.3228 57.5814 28.1558 57.928 28.1092 58.3001L27.1046 66.2363C27.0356 66.7583 27.2097 67.2832 27.5768 67.6583C27.9439 68.0328 28.4627 68.2159 28.9816 68.1541L36.8884 67.1417C37.2578 67.0947 37.6014 66.9265 37.8664 66.6626L49.0779 55.3705V71.589H3.3851L3.38437 3.41176ZM17.6102 9.37729C17.1616 9.39869 16.7396 9.59843 16.4368 9.93312C16.134 10.2678 15.9758 10.7095 15.9971 11.1619C16.0183 11.6137 16.2166 12.0393 16.5489 12.3437C16.8812 12.6487 17.3204 12.8074 17.7689 12.7866H34.6922C35.1455 12.7926 35.5817 12.616 35.9045 12.2956C36.2268 11.9751 36.4086 11.5382 36.4086 11.0816C36.4086 10.6257 36.2268 10.1881 35.9045 9.8683C35.5817 9.54788 35.1455 9.37073 34.6922 9.37726H17.7689C17.7164 9.37488 17.6633 9.37491 17.6102 9.37729ZM9.99502 18.7522C9.54584 18.7731 9.12383 18.9734 8.82163 19.3075C8.51884 19.6422 8.36065 20.0845 8.3819 20.5363C8.40256 20.9887 8.60146 21.4137 8.93376 21.7187C9.26606 22.023 9.70462 22.1824 10.1538 22.1609H42.308C42.7607 22.1675 43.1975 21.9909 43.5197 21.6705C43.8426 21.3501 44.0244 20.9131 44.0244 20.4566C44.0244 20 43.8426 19.5631 43.5197 19.2427C43.1975 18.9222 42.7607 18.7457 42.308 18.7522H10.1538C10.1007 18.7498 10.0481 18.7499 9.99502 18.7522ZM9.99502 26.4221C9.54584 26.4435 9.12383 26.6433 8.82163 26.9779C8.51884 27.3126 8.36065 27.7543 8.3819 28.2067C8.40256 28.6585 8.60146 29.0842 8.93376 29.3885C9.26606 29.6935 9.70462 29.8522 10.1538 29.8314H42.308C42.7607 29.8374 43.1975 29.6608 43.5197 29.3404C43.8426 29.02 44.0244 28.583 44.0244 28.1265C44.0244 27.6705 43.8426 27.233 43.5197 26.9131C43.1975 26.5927 42.7607 26.4156 42.308 26.4221H10.1538C10.1007 26.4197 10.0481 26.4197 9.99502 26.4221ZM57.433 33.0802L61.9283 37.6078L37.7069 61.9758L33.2116 57.475L57.433 33.0802ZM9.99502 34.0926C9.54584 34.1134 9.12383 34.3132 8.82163 34.6479C8.51884 34.9826 8.36065 35.4249 8.3819 35.8766C8.40256 36.329 8.60146 36.7541 8.93376 37.0585C9.26606 37.3634 9.70462 37.5227 10.1538 37.5014H42.308C42.7607 37.5079 43.1975 37.3313 43.5197 37.0109C43.8426 36.6905 44.0244 36.2529 44.0244 35.797C44.0244 35.3404 43.8426 34.9035 43.5197 34.583C43.1975 34.2626 42.7607 34.0861 42.308 34.0926H10.1538C10.1007 34.0896 10.0481 34.0897 9.99502 34.0926ZM31.2549 60.299L34.9042 63.974L30.726 64.5067L31.2549 60.299Z" fill="#2E72BB"/>
</svg>
