<svg width="80" height="67" viewBox="0 0 80 67" fill="none" xmlns="http://www.w3.org/2000/svg">
<path d="M7.82247 5.51111C6.75601 5.51111 5.95551 6.31096 5.95551 7.37808C5.95551 8.44455 6.84464 9.24505 7.82247 9.24505C8.88894 9.24505 9.68944 8.4452 9.68944 7.37808C9.68882 6.31161 8.88897 5.51111 7.82247 5.51111Z" fill="#2E72BB"/>
<path d="M12.9781 5.51111C11.9116 5.51111 11.1111 6.31096 11.1111 7.37808C11.1111 8.44455 11.9109 9.24505 12.9781 9.24505C14.0445 9.24505 14.845 8.4452 14.845 7.37808C14.8444 6.31161 14.0446 5.51111 12.9781 5.51111Z" fill="#2E72BB"/>
<path d="M43.5555 54.3996C44.2667 55.9106 46.0444 56.6218 47.5554 55.9992C49.0664 55.3767 49.7776 53.5104 49.155 51.9994L44.1774 40.7105L54.044 40.9771L32.0887 20.6233L31.9107 50.5786L38.666 43.2009L43.5555 54.3996Z" fill="#2E72BB"/>
<path d="M74.6664 0H5.33361C2.4003 0 0 2.40014 0 5.33361V61.3332C0 64.2665 2.40014 66.6668 5.33361 66.6668H74.6664C77.5997 66.6668 80 64.2666 80 61.3332V5.33361C79.9994 2.4003 77.5992 0 74.6659 0H74.6664ZM76.4446 61.3328C76.4446 62.3106 75.6448 63.1105 74.667 63.1105L5.33424 63.1111C4.35644 63.1111 3.55664 62.3112 3.55664 61.3335L3.55602 14.3116H76.4443L76.4446 61.3328ZM76.4446 10.7555H3.55632V5.33329C3.55632 4.35549 4.35617 3.55569 5.33393 3.55569H74.6667C75.6445 3.55569 76.4443 4.35554 76.4443 5.33329L76.4446 10.7555Z" fill="#2E72BB"/>
<path d="M18.1335 5.51111C17.067 5.51111 16.2665 6.31096 16.2665 7.37808C16.2665 8.44455 17.0664 9.24505 18.1335 9.24505C19.2 9.24505 20.0005 8.4452 20.0005 7.37808C20.0005 6.31161 19.2006 5.51111 18.1335 5.51111Z" fill="#2E72BB"/>
<path d="M7.82247 9.24431C6.84467 9.24431 5.95551 8.44446 5.95551 7.37734C5.95551 6.31088 6.75536 5.51038 7.82247 5.51038C8.88894 5.51038 9.68944 6.31023 9.68944 7.37734C9.68882 8.44443 8.88897 9.24431 7.82247 9.24431ZM12.978 9.24431C11.9115 9.24431 11.111 8.44446 11.111 7.37734C11.111 6.31088 11.9109 5.51038 12.978 5.51038C14.0445 5.51038 14.845 6.31023 14.845 7.37734C14.8443 8.44443 14.0445 9.24431 12.978 9.24431ZM18.133 9.24431C17.0666 9.24431 16.2661 8.44446 16.2661 7.37734C16.2661 6.31088 17.0659 5.51038 18.133 5.51038C19.1995 5.51038 20 6.31023 20 7.37734C20 8.44443 19.2001 9.24431 18.133 9.24431Z" fill="#2E72BB"/>
</svg>
